<!DOCTYPE svg PUBLIC "-//W3C//DTD SVG 1.1//EN" "http://www.w3.org/Graphics/SVG/1.1/DTD/svg11.dtd">

<!-- Uploaded to: SVG Repo, www.svgrepo.com, Transformed by: SVG Repo Mixer Tools -->
<svg fill="#000" height="80px" width="80px" version="1.1" id="Capa_1" xmlns="http://www.w3.org/2000/svg" xmlns:xlink="http://www.w3.org/1999/xlink" viewBox="0 0 303.124 303.124" xml:space="preserve">

<g id="SVGRepo_bgCarrier" stroke-width="0"/>

<g id="SVGRepo_tracerCarrier" stroke-linecap="round" stroke-linejoin="round"/>

<g id="SVGRepo_iconCarrier"> <g> <path d="M312.208,48.613c-1.136-1.47-2.889-2.33-4.746-2.33H70.499L59.631,4.49c-0.01-0.038-0.024-0.073-0.035-0.11 c-0.033-0.119-0.07-0.235-0.11-0.35c-0.026-0.076-0.054-0.152-0.083-0.227c-0.042-0.105-0.086-0.208-0.133-0.31 c-0.038-0.083-0.077-0.165-0.118-0.246c-0.045-0.087-0.093-0.172-0.143-0.257c-0.051-0.088-0.103-0.175-0.158-0.26 c-0.048-0.074-0.099-0.145-0.149-0.216c-0.063-0.088-0.127-0.175-0.194-0.259C58.456,2.19,58.4,2.127,58.344,2.063 c-0.07-0.081-0.141-0.161-0.216-0.238c-0.062-0.064-0.128-0.125-0.192-0.187c-0.073-0.068-0.145-0.136-0.221-0.201 c-0.076-0.065-0.155-0.126-0.234-0.187c-0.07-0.054-0.14-0.108-0.212-0.159c-0.09-0.064-0.183-0.123-0.277-0.181 c-0.067-0.042-0.134-0.085-0.203-0.123c-0.101-0.057-0.204-0.11-0.309-0.162c-0.068-0.034-0.136-0.068-0.205-0.099 c-0.104-0.046-0.21-0.088-0.317-0.129c-0.077-0.03-0.154-0.059-0.232-0.085c-0.099-0.033-0.2-0.063-0.301-0.091 c-0.093-0.025-0.185-0.05-0.279-0.071c-0.089-0.02-0.178-0.037-0.268-0.053c-0.111-0.02-0.224-0.038-0.337-0.052 c-0.077-0.009-0.154-0.016-0.231-0.022c-0.126-0.01-0.252-0.017-0.38-0.019C53.896,0.005,53.86,0,53.824,0H6C2.687,0,0,2.687,0,6 c0,3.313,2.687,6,6,6h43.185l10.867,41.793c0,0.001,0.001,0.002,0.001,0.004l36.107,138.852c0.688,2.644,3.075,4.49,5.807,4.49 h169.383c2.732,0,5.119-1.846,5.807-4.49l36.111-138.855C313.736,51.996,313.345,50.083,312.208,48.613z M290.786,92.566h-62.338 V58.283h71.254L290.786,92.566z M278.748,138.855h-50.3v-34.289h59.217L278.748,138.855z M156.87,138.855v-34.289h59.578v34.289 H156.87z M216.448,150.855v34.283H156.87v-34.283H216.448z M85.655,104.566h59.215v34.289H94.571L85.655,104.566z M156.87,92.566 V58.283h59.578v34.283H156.87z M144.87,58.283v34.283H82.534l-8.915-34.283H144.87z M97.692,150.855h47.178v34.283h-38.263 L97.692,150.855z M266.711,185.139h-38.263v-34.283h47.179L266.711,185.139z"/> <path d="M126.419,211.072c-16.791,0-30.451,13.66-30.451,30.451s13.66,30.451,30.451,30.451s30.451-13.66,30.451-30.451 S143.21,211.072,126.419,211.072z M126.419,259.975c-10.174,0-18.451-8.277-18.451-18.451c0-10.174,8.277-18.451,18.451-18.451 s18.451,8.277,18.451,18.451C144.87,251.697,136.593,259.975,126.419,259.975z"/> <path d="M246.9,211.072c-16.791,0-30.451,13.66-30.451,30.451s13.66,30.451,30.451,30.451c16.791,0,30.451-13.66,30.451-30.451 S263.69,211.072,246.9,211.072z M246.9,259.975c-10.174,0-18.451-8.277-18.451-18.451c0-10.174,8.277-18.451,18.451-18.451 c10.174,0,18.451,8.277,18.451,18.451C265.351,251.697,257.073,259.975,246.9,259.975z"/> </g> </g>

</svg>